<svg id="Слой_1" data-name="Слой 1" xmlns="http://www.w3.org/2000/svg" viewBox="0 0 50 50"><defs><style>.cls-1{fill:#4e598f;}.cls-2{fill:#364270;}.cls-3{fill:#fff;}</style></defs><title>facebook</title><circle class="cls-1" cx="25" cy="25" r="25"/><path class="cls-2" d="M50,23.6,38.19,11.82c-.2.06-.68-.17-.9-.12-5.05.84-9.93,0-14.81,1.35-2.36.67-2.53,3.54-3.37,5.39-1.18,3.37-1,7.07-2.53,10.27-1,2.19-3.37,3.54-4.21,6.06-.28,1.05-.26,2.38-.58,3.39L23.61,50c.46,0,.93,0,1.39,0A25,25,0,0,0,50,25C50,24.53,50,24.07,50,23.6Z"/><path class="cls-3" d="M35.45,10.69H14.55a3.86,3.86,0,0,0-3.86,3.86V35.45a3.86,3.86,0,0,0,3.86,3.86H24.86l0-10.23H22.22a.63.63,0,0,1-.63-.62v-3.3a.63.63,0,0,1,.63-.63h2.65V21.35c0-3.7,2.26-5.71,5.56-5.71h2.71a.63.63,0,0,1,.63.63V19a.63.63,0,0,1-.63.63H31.46c-1.79,0-2.14.85-2.14,2.1v2.76h3.94a.63.63,0,0,1,.62.7l-.39,3.3a.63.63,0,0,1-.62.55H29.34l0,10.23h6.14a3.86,3.86,0,0,0,3.86-3.86V14.55a3.86,3.86,0,0,0-3.86-3.86Z"/><polygon class="cls-3" points="24.86 39.31 24.88 29.08 24.83 29.08 24.83 39.31 24.86 39.31"/></svg>