<svg id="Слой_1" data-name="Слой 1" xmlns="http://www.w3.org/2000/svg" viewBox="0 0 50 50"><defs><style>.cls-1{fill:#74a0fb;}.cls-2{fill:#27292a;fill-rule:evenodd;}</style></defs><title>fb-hover</title><rect class="cls-1" width="50" height="50" rx="4.17" ry="4.17"/><path class="cls-2" d="M28.92,15.61c.88,0,1.76,0,2.64,0h.36V11c-.47,0-1-.12-1.45-.14-.9,0-1.8-.09-2.7-.06A6.63,6.63,0,0,0,23.95,12a5.71,5.71,0,0,0-2.29,3.81,13.37,13.37,0,0,0-.16,2c0,1,0,2.05,0,3.08v.38H17.12v5.1h4.35V39.17h5.31V26.37h4.33c.22-1.7.44-3.38.67-5.13h-5s0-2.53,0-3.63C26.83,16.11,27.72,15.65,28.92,15.61Z"/></svg>