<svg id="Слой_1" data-name="Слой 1" xmlns="http://www.w3.org/2000/svg" viewBox="0 0 50 50"><defs><style>.cls-1{fill:#e59081;}.cls-2{fill:#27292a;}</style></defs><title>gm-hover</title><rect class="cls-1" width="50" height="50" rx="4.17" ry="4.17"/><path class="cls-2" d="M19,22.92c0,.06,0,.11,0,.16,0,1.26,0,4,0,4h5.54a4.7,4.7,0,0,1-2,3.12,6,6,0,0,1-3,1,6.08,6.08,0,0,1-2.25-.26A6.24,6.24,0,0,1,13,25.52a5.93,5.93,0,0,1,.13-1.88,6.12,6.12,0,0,1,6.81-4.77,5.58,5.58,0,0,1,3,1.47l3-3A12.83,12.83,0,0,0,24.12,16a9.85,9.85,0,0,0-4.91-1.34c-.33,0-.66,0-1,0a8.14,8.14,0,0,0-1.71.27A10.38,10.38,0,0,0,8.67,24.4a9.77,9.77,0,0,0,.22,2.79,10.25,10.25,0,0,0,4.05,6.19,10.11,10.11,0,0,0,5.53,2A11,11,0,0,0,21.86,35,9,9,0,0,0,27,31.65a11.1,11.1,0,0,0,1.78-8.73Z"/><polygon class="cls-2" points="41.25 23.06 37.74 23.06 37.74 19.55 37.74 19.45 37.64 19.45 35.02 19.45 34.91 19.45 34.91 19.55 34.91 23.06 31.41 23.06 31.3 23.06 31.3 23.16 31.3 25.78 31.3 25.88 31.41 25.88 34.91 25.88 34.91 29.39 34.91 29.5 35.02 29.5 37.64 29.5 37.74 29.5 37.74 29.39 37.74 25.88 41.25 25.88 41.35 25.88 41.35 25.78 41.35 23.16 41.35 23.06 41.25 23.06"/></svg>