<svg id="Слой_1" data-name="Слой 1" xmlns="http://www.w3.org/2000/svg" viewBox="0 0 50 50"><defs><style>.cls-1{fill:#cf4c3c;}.cls-2{fill:#ad3228;}.cls-3{fill:#fff;}</style></defs><title>gmail</title><circle class="cls-1" cx="25" cy="25" r="25"/><path class="cls-2" d="M36.42,21l-3.57,4.29-6.72-7H16.86l-3.76,4.07V31.2l18,18a25.05,25.05,0,0,0,17.47-16Z"/><path class="cls-3" d="M20.73,26.89H25.2a5.68,5.68,0,1,1-1.54-6.1.62.62,0,0,0,.84,0l1.64-1.55a.61.61,0,0,0,0-.89A9.12,9.12,0,0,0,20,15.85a9.16,9.16,0,1,0,9,9.67c0-.06,0-2.1,0-2.1H20.73a.61.61,0,0,0-.61.61v2.25a.61.61,0,0,0,.61.61Z"/><path class="cls-3" d="M36.58,23.62v-2.2a.54.54,0,0,0-.54-.54H34.19a.54.54,0,0,0-.54.54v2.2h-2.2a.54.54,0,0,0-.54.54V26a.54.54,0,0,0,.54.54h2.2v2.2a.54.54,0,0,0,.54.54H36a.54.54,0,0,0,.54-.54v-2.2h2.2a.54.54,0,0,0,.54-.54V24.16a.54.54,0,0,0-.54-.54Z"/></svg>