<svg id="Слой_1" data-name="Слой 1" xmlns="http://www.w3.org/2000/svg" viewBox="0 0 50 50"><defs><style>.cls-1{fill:#ebebeb;}.cls-2{fill:#27292a;fill-rule:evenodd;}</style></defs><title>home-tw</title><rect class="cls-1" width="50" height="50" rx="4.17" ry="4.17"/><path class="cls-2" d="M19.78,31.1a5.46,5.46,0,0,1-5.07-3.78,5.41,5.41,0,0,0,2.34-.07l.08,0a5.44,5.44,0,0,1-3.54-2.5,5.29,5.29,0,0,1-.8-2.9,5.37,5.37,0,0,0,2.42.66A5.47,5.47,0,0,1,13,19.17a5.4,5.4,0,0,1,.58-3.95,15.59,15.59,0,0,0,11.24,5.69c0-.22-.07-.41-.09-.6A5.45,5.45,0,0,1,34,15.81a.28.28,0,0,0,.29.09,11,11,0,0,0,3.17-1.22l.07,0h0a5.57,5.57,0,0,1-2.33,3,10.44,10.44,0,0,0,3-.82l0,0c-.21.27-.41.55-.63.82a10.67,10.67,0,0,1-2,1.88.18.18,0,0,0-.09.17,15,15,0,0,1-.1,2.42A16,16,0,0,1,34.05,27a15.68,15.68,0,0,1-2.94,4.29,14.56,14.56,0,0,1-7.49,4.17,16.31,16.31,0,0,1-3,.36,15.38,15.38,0,0,1-8.72-2.34l-.13-.08a11,11,0,0,0,5.45-.75A10.8,10.8,0,0,0,19.78,31.1Z"/></svg>