<svg id="Слой_1" data-name="Слой 1" xmlns="http://www.w3.org/2000/svg" viewBox="0 0 80 80"><defs><style>.cls-1{fill:#3b5566;}.cls-2{fill:#d2d7db;}.cls-3{fill:#fcfcfc;}.cls-4{fill:#f4f1ed;}.cls-5{fill:#536c87;}.cls-6{fill:#5d7993;}.cls-7{fill:#c3c7c9;}.cls-8{fill:#466077;}.cls-9{fill:#fff;}.cls-10{fill:#493c35;}</style></defs><title>shark</title><path class="cls-1" d="M12.08,54.44l-4,5.66L6.45,56.77H2.58L0,50.32,10.32,52.9Z" transform="translate(0 0)"/><path class="cls-2" d="M79.35,58,80,64.52l-3.87-3.87-9-5.16-1.92,7.06a19.76,19.76,0,0,1-8.1,11.24l-2.83,1.88a19.76,19.76,0,0,1-14.21,3,52.44,52.44,0,0,1-14.83-4.82l-3.27-1.64L17,78.14a5.16,5.16,0,0,1-4,1.86H6.45a13.56,13.56,0,0,0,5.34-7l1.11-3.33L12.05,68l8.68-6,1.44.62a21.47,21.47,0,0,0,15.24.63l-2.58-3.87-6.45-2.58L18.06,51.61l-1.29-3.87H37.42l6.45-6.45v-9l-7.74,2.58h-31L2.58,29.68,1.06,24.37A27.63,27.63,0,0,1,0,16.77l14.19-2.58a79.34,79.34,0,0,1,28.39,0l1.22-1A53.62,53.62,0,0,1,58.21,4.59l1.89-.75A53.61,53.61,0,0,1,80,0L71.61,10.68A47.86,47.86,0,0,0,63.23,27.1L67.1,37.42a4.7,4.7,0,0,1,4,2.18l4.21,6.62A26.9,26.9,0,0,1,79.35,58Z" transform="translate(0 0)"/><path class="cls-3" d="M6.45,38.71l5.16,5.16,5.16-5.16,5.16,5.16,5.16-5.16,5.16,5.16,5.16-5.16,6.45,2.58v-9l-7.74,2.58h-31Z" transform="translate(0 0)"/><path class="cls-4" d="M16.77,47.74l-2.58-1.29-2.58-2.58,5.16-5.16,5.16,5.16,5.16-5.16,5.16,5.16,5.16-5.16,6.45,2.58-6.45,6.45Z" transform="translate(0 0)"/><path class="cls-5" d="M67.1,55.48l-3.87-1.29-1.29-2.58-2.25,9.74A19.76,19.76,0,0,1,49.14,74.65c-2.95,1.45-5.86,2.91-9.14,2.77H34.84l5.2,1.3a19.76,19.76,0,0,0,14.21-3l2.83-1.88a19.76,19.76,0,0,0,8.1-11.24Z" transform="translate(0 0)"/><path class="cls-5" d="M2.58,29.68H34.84l6.76-2.89a7.35,7.35,0,0,1,9,2.68l3.58,5.38h7.74l5.16,2.58L63.23,27.1a27.12,27.12,0,0,0-14-10.68l-6.66-2.22a79.34,79.34,0,0,0-28.39,0L0,16.77a27.64,27.64,0,0,0,1.06,7.59Z" transform="translate(0 0)"/><path class="cls-1" d="M42.58,60.65l-1,2.08a11.82,11.82,0,0,1-12,6.44l-2.22-.28a41.23,41.23,0,0,1-7.92-1.8L12.9,80H6.45a13.56,13.56,0,0,0,5.34-7l1.11-3.33L12.05,68l8.68-6,1.44.62a21.47,21.47,0,0,0,15.24.63l-2.58-3.87Z" transform="translate(0 0)"/><path class="cls-6" d="M54.19,34.84h7.74l5.16,2.58a4.7,4.7,0,0,1,4,2.18l4.21,6.62A26.9,26.9,0,0,1,79.35,58L80,64.52l-3.87-3.87a26.91,26.91,0,0,0-6.54-13.58A21.36,21.36,0,0,0,53.71,40H52.9Z" transform="translate(0 0)"/><path class="cls-5" d="M50.32,16.77a29.68,29.68,0,0,1,9.53-8.25l6.21-3.39A29.67,29.67,0,0,1,70.89,3L80,0A53.6,53.6,0,0,0,60.09,3.83l-1.89.75A53.61,53.61,0,0,0,43.8,13.18l-1.22,1Z" transform="translate(0 0)"/><path class="cls-7" d="M25.81,55.48a12.25,12.25,0,0,1-4.64,6.19l-.43.3-8.68,6L7.74,71l2.12-7.39.47-1.64,4.09-5.46,3.65-4.86Z" transform="translate(0 0)"/><path class="cls-8" d="M18.06,51.61l-3.65,4.86-3.07,4.1a9.19,9.19,0,0,0-1.49,3L7.74,71V60.65l.37-.54,4-5.66,4.7-6.7Z" transform="translate(0 0)"/><path class="cls-1" d="M9,25.81a1.29,1.29,0,0,1-1.16-.71L6.59,22.51A1.29,1.29,0,0,1,8.9,21.36l1.29,2.58A1.29,1.29,0,0,1,9,25.81Z" transform="translate(0 0)"/><path class="cls-1" d="M15.49,25.81a1.29,1.29,0,0,1-1.16-.71L13,22.51a1.29,1.29,0,0,1,2.31-1.15l1.29,2.58a1.29,1.29,0,0,1-1.15,1.87Z" transform="translate(0 0)"/><path class="cls-1" d="M49.78,25.76a1.29,1.29,0,0,1,.54-1.24l2.37-1.64A1.29,1.29,0,1,1,54.16,25l-2.37,1.64a1.29,1.29,0,0,1-2-.88Z" transform="translate(0 0)"/><path class="cls-1" d="M53.65,29.63a1.29,1.29,0,0,1,.54-1.24l2.37-1.64A1.29,1.29,0,1,1,58,28.87l-2.37,1.64a1.29,1.29,0,0,1-2-.88Z" transform="translate(0 0)"/><path class="cls-1" d="M56.23,33.5a1.29,1.29,0,0,1,.54-1.24l2.37-1.64a1.29,1.29,0,1,1,1.47,2.12l-2.37,1.64a1.29,1.29,0,0,1-2-.88Z" transform="translate(0 0)"/><path class="cls-9" d="M34.84,20.65a3.87,3.87,0,0,1-7.74,0,3,3,0,0,1,.05-.59,6,6,0,0,0,1.77-1.23l.23-.23a6.17,6.17,0,0,1,3-1.64A3.85,3.85,0,0,1,34.84,20.65Z" transform="translate(0 0)"/><path class="cls-10" d="M33.55,21.94A2.58,2.58,0,1,1,31,19.35,2.58,2.58,0,0,1,33.55,21.94Z" transform="translate(0 0)"/><path class="cls-9" d="M31,20.65a1.29,1.29,0,1,1-1.29-1.29A1.29,1.29,0,0,1,31,20.65Z" transform="translate(0 0)"/><path class="cls-9" d="M32.26,23.87a.65.65,0,1,1-.65-.65A.65.65,0,0,1,32.26,23.87Z" transform="translate(0 0)"/><path class="cls-1" d="M24.52,21.94a1.29,1.29,0,1,1,0-2.58,4.87,4.87,0,0,0,2.08-.47,4.72,4.72,0,0,0,1.41-1l.23-.23a7.42,7.42,0,0,1,3.57-2,7.19,7.19,0,0,1,1.74-.21h2.58a1.29,1.29,0,0,1,0,2.58H33.55a4.67,4.67,0,0,0-1.13.14,4.88,4.88,0,0,0-2.35,1.3l-.23.23a7.24,7.24,0,0,1-2.15,1.49A7.43,7.43,0,0,1,24.52,21.94Z" transform="translate(0 0)"/></svg>