<svg id="Слой_1" data-name="Слой 1" xmlns="http://www.w3.org/2000/svg" viewBox="0 0 100 80"><defs><style>.cls-1{fill:#89867c;}.cls-2{fill:#6d6b64;}.cls-3{fill:#ffae0b;}.cls-4{fill:#ffd00d;}.cls-5{fill:#7a8487;}.cls-6{fill:#596568;}.cls-7{fill:#ff860d;}.cls-8{fill:#e56a0e;}.cls-9{fill:#77acbf;}.cls-10{fill:#e8d918;}.cls-11{fill:#539aad;}</style></defs><title>submarine-left</title><path class="cls-1" d="M50.81,47.11c-2.42,0-4.52-2.72-4.52-5.86V7.33c0-3.14,2.1-5.86,4.52-5.86h10V8.58H51.61V41.24c0-.63-.48-1.26-1-1.26v7.12Z" transform="translate(0 0)"/><path class="cls-2" d="M50.81,8.58c-2.42,0-4.52,2.72-4.52,5.86v26.8c0,3.14,2.1,5.86,4.52,5.86V40c.48,0,1,.63,1,1.26V8.58Z" transform="translate(0 0)"/><path class="cls-2" d="M61.45,9.21c0,.63-.48,1.26-1,1.26h0c-.48,0-1-.63-1-1.26v-8c0-.63.48-1.26,1-1.26h0c.48,0,1,.63,1,1.26Z" transform="translate(0 0)"/><path class="cls-3" d="M64.68,36.64c0,.84-.48,1.47-1.13,1.47H36.94c-.65,0-1.13-.63-1.13-1.47l2.42-13c0-.84.48-1.47,1.13-1.47H59.84c.65,0,1.13.63,1.13,1.47Z" transform="translate(0 0)"/><path class="cls-4" d="M72.1,49.41a2.11,2.11,0,0,1-1.77,2.3H30a2.11,2.11,0,0,1-1.77-2.3l3.55-19.68a2.11,2.11,0,0,1,1.77-2.3H64.84a2.11,2.11,0,0,1,1.77,2.3Z" transform="translate(0 0)"/><path class="cls-3" d="M72.1,50.67A2.11,2.11,0,0,1,70.32,53H30a2.11,2.11,0,0,1-1.77-2.3L31.77,31a2.11,2.11,0,0,1,1.77-2.3H64.84A2.11,2.11,0,0,1,66.61,31Z" transform="translate(0 0)"/><path class="cls-5" d="M14.35,72.23c0,1.47-.32,2.72-.81,2.72-.32,0-1.45-2.51-1.45-4s1.13-1.26,1.45-1.26C14,69.72,14.35,70.76,14.35,72.23Z" transform="translate(0 0)"/><path class="cls-5" d="M12.1,77.46c0-1.47.32-2.72.81-2.72.32,0,1.45,2.51,1.45,4S13.23,80,12.9,80C12.42,80.19,12.1,78.93,12.1,77.46Z" transform="translate(0 0)"/><path class="cls-6" d="M28.87,75c0,.42-.32.84-.65.84H13.87c-.32,0-.65-.42-.65-.84h0c0-.42.32-.84.65-.84H28.23c.32,0,.65.21.65.84Z" transform="translate(0 0)"/><path class="cls-5" d="M63.39,77.26a2.11,2.11,0,0,1-1.77,2.3H23.71a2.11,2.11,0,0,1-1.77-2.3V72a2.11,2.11,0,0,1,1.77-2.3h37.9A2.11,2.11,0,0,1,63.39,72Z" transform="translate(0 0)"/><path class="cls-6" d="M65.65,77.26a2.11,2.11,0,0,1-1.77,2.3H26a2.11,2.11,0,0,1-1.77-2.3V72A2.11,2.11,0,0,1,26,69.72h37.9A2.11,2.11,0,0,1,65.65,72v5.23Z" transform="translate(0 0)"/><path class="cls-4" d="M14.19,49.83c0,5.23-7.74,9.63-10,9.63S0,55.06,0,49.83.48,38.52,2.74,38.52C5.16,38.52,14.19,44.59,14.19,49.83Z" transform="translate(0 0)"/><path class="cls-3" d="M11,49.83c0,5.23-4.35,9.63-6.77,9.63S0,55.06,0,49.83.48,38.52,2.74,38.52C5.16,38.52,11,44.59,11,49.83Z" transform="translate(0 0)"/><path class="cls-4" d="M100,57.57c0,9.84-7.9,22.19-35.48,22.19C37.1,79.77.32,67.42.32,57.57s22.26-17.8,49.84-17.8S100,47.73,100,57.57Z" transform="translate(0 0)"/><path class="cls-3" d="M100,57.57c0,9.84-7.9,22.19-35.48,22.19C37.1,79.77.32,67.42.32,57.57S26.45,43.34,53.87,43.34C81.45,43.34,100,47.73,100,57.57Z" transform="translate(0 0)"/><path class="cls-7" d="M100,57.57c0,9.84-7.9,22.19-35.48,22.19C37.1,79.77.32,67.42.32,57.57" transform="translate(0 0)"/><path class="cls-8" d="M32.74,67.83c-2.42,0-4.35-5-4.35-8.17S30.32,54,32.74,54s4.35,2.51,4.35,5.65S35.16,67.83,32.74,67.83Z" transform="translate(0 0)"/><path class="cls-9" d="M32.74,65.53c-2.42,0-4.35-2.51-4.35-5.65s1.94-5.65,4.35-5.65,4.35,2.51,4.35,5.65S35.16,65.53,32.74,65.53Z" transform="translate(0 0)"/><path class="cls-10" d="M32.74,54.64c2.26,0,4,2.3,4,5.23s-1.77,5.23-4,5.23-4-2.3-4-5.23,1.94-5.23,4-5.23m0-1.26c-2.74,0-4.84,2.93-4.84,6.28,0,3.56,2.26,6.28,4.84,6.28,2.74,0,4.84-2.93,4.84-6.28s-2.1-6.28-4.84-6.28Z" transform="translate(0 0)"/><path class="cls-11" d="M28.71,59.67c0,2.93,1.77,5.23,4,5.23s4-2.3,4-5.23a7.82,7.82,0,0,0-.32-2.09H29.19A5,5,0,0,0,28.71,59.67Z" transform="translate(0 0)"/><path class="cls-8" d="M50.16,67.83c-2.42,0-4.35-5-4.35-8.17S47.74,54,50.16,54s4.35,2.51,4.35,5.65S52.58,67.83,50.16,67.83Z" transform="translate(0 0)"/><path class="cls-9" d="M50.16,65.53c-2.42,0-4.35-2.51-4.35-5.65s1.94-5.65,4.35-5.65,4.35,2.51,4.35,5.65S52.58,65.53,50.16,65.53Z" transform="translate(0 0)"/><path class="cls-10" d="M50.16,54.64c2.26,0,4,2.3,4,5.23s-1.77,5.23-4,5.23-4-2.3-4-5.23,1.94-5.23,4-5.23m0-1.26c-2.74,0-4.84,2.93-4.84,6.28,0,3.56,2.26,6.28,4.84,6.28C52.9,65.95,55,63,55,59.67s-2.1-6.28-4.84-6.28Z" transform="translate(0 0)"/><path class="cls-11" d="M46.13,59.67c0,2.93,1.77,5.23,4,5.23s4-2.3,4-5.23a7.82,7.82,0,0,0-.32-2.09H46.61A5,5,0,0,0,46.13,59.67Z" transform="translate(0 0)"/><path class="cls-8" d="M67.58,67.83c-2.42,0-4.35-5-4.35-8.17S65.16,54,67.58,54s4.35,2.51,4.35,5.65S70,67.83,67.58,67.83Z" transform="translate(0 0)"/><path class="cls-9" d="M67.58,65.53c-2.42,0-4.35-2.51-4.35-5.65s1.94-5.65,4.35-5.65,4.35,2.51,4.35,5.65S70,65.53,67.58,65.53Z" transform="translate(0 0)"/><path class="cls-10" d="M67.58,54.64c2.26,0,4,2.3,4,5.23s-1.77,5.23-4,5.23-4-2.3-4-5.23,1.94-5.23,4-5.23m0-1.26c-2.74,0-4.84,2.93-4.84,6.28,0,3.56,2.26,6.28,4.84,6.28,2.74,0,4.84-2.93,4.84-6.28s-2.1-6.28-4.84-6.28Z" transform="translate(0 0)"/><path class="cls-11" d="M63.55,59.67c0,2.93,1.77,5.23,4,5.23s4-2.3,4-5.23a7.82,7.82,0,0,0-.32-2.09H64A5,5,0,0,0,63.55,59.67Z" transform="translate(0 0)"/><path class="cls-5" d="M14.19,75c0,.63-.48,1.26-1,1.26s-1-.63-1-1.26.48-1.26,1-1.26S14.19,74.11,14.19,75Z" transform="translate(0 0)"/></svg>