<svg id="Слой_1" data-name="Слой 1" xmlns="http://www.w3.org/2000/svg" viewBox="0 0 50 20"><defs><style>.cls-1{fill:#57555c;}.cls-2{fill:#424148;}.cls-3{fill:#aeadb3;}.cls-4{fill:#e70020;}.cls-5{fill:#9b0013;}.cls-6{fill:#8b8892;}</style></defs><title>torpedo</title><polygon class="cls-1" points="8.9 0 12.93 4.53 11.99 5.5 11.99 5.5 11.99 5.5 11.05 6.47 10.53 5.89 4.47 7.5 4.47 7.85 1.86 7.85 1.86 0 8.9 0"/><polygon class="cls-2" points="4.47 12.15 4.47 12.5 10.53 14.11 11.05 13.53 11.99 14.5 11.99 14.5 11.99 14.5 12.93 15.47 8.9 20 1.86 20 1.86 12.15 4.47 12.15"/><polygon class="cls-3" points="0 8.36 0 11.63 14.24 16.73 14.24 3.17 0 8.36"/><path class="cls-1" d="M14.24,3.17V16.73H43.78A6.48,6.48,0,0,0,50,10V9.87a6.48,6.48,0,0,0-6.22-6.69Z" transform="translate(0 0)"/><path class="cls-4" d="M38.7,3.17V16.73h5.08A6.48,6.48,0,0,0,50,10V9.87a6.48,6.48,0,0,0-6.22-6.69Z" transform="translate(0 0)"/><path class="cls-2" d="M14.24,10v6.78H43.78A6.48,6.48,0,0,0,50,10V10Z" transform="translate(0 0)"/><path class="cls-5" d="M50,10H38.7v6.78h5.08A6.48,6.48,0,0,0,50,10Z" transform="translate(0 0)"/><polygon class="cls-6" points="0 9.95 0 11.63 14.24 16.73 14.24 9.95 0 9.95"/></svg>