<svg id="Слой_1" data-name="Слой 1" xmlns="http://www.w3.org/2000/svg" viewBox="0 0 50 50"><defs><style>.cls-1{fill:#65a2d9;}.cls-2{fill:#3a7ca5;}.cls-3{fill:#fff;}</style></defs><title>twitter</title><circle class="cls-1" cx="25" cy="25" r="25"/><path class="cls-2" d="M38.38,13.61c-2.61,2.26-5.2,4.25-7.32,7C25.85,26.91,19.48,35.83,10.81,34.5L26.3,50A25,25,0,0,0,50,25.22Z"/><path class="cls-3" d="M38.85,15.87a11.31,11.31,0,0,1-2,.67,6.15,6.15,0,0,0,1.62-2.59.32.32,0,0,0-.47-.38,11.38,11.38,0,0,1-3,1.25l-.19,0a.8.8,0,0,1-.53-.2,6.17,6.17,0,0,0-4.08-1.54,6.59,6.59,0,0,0-2,.3,6,6,0,0,0-4,4.31A6.58,6.58,0,0,0,24.09,20a.22.22,0,0,1-.06.17.23.23,0,0,1-.17.08h0a16.18,16.18,0,0,1-11.12-5.94.32.32,0,0,0-.53,0,6.18,6.18,0,0,0,1,7.5,5.53,5.53,0,0,1-1.41-.55.32.32,0,0,0-.48.28,6.18,6.18,0,0,0,3.6,5.69h-.13a5.53,5.53,0,0,1-1-.1.32.32,0,0,0-.37.42,6.18,6.18,0,0,0,4.88,4.21,11.39,11.39,0,0,1-6.38,1.94h-.71a.47.47,0,0,0-.46.36.49.49,0,0,0,.23.54,16.93,16.93,0,0,0,8.51,2.29,17.16,17.16,0,0,0,7.27-1.54,16.06,16.06,0,0,0,5.32-4,17.48,17.48,0,0,0,3.26-5.46,17.24,17.24,0,0,0,1.11-6v-.09A1.05,1.05,0,0,1,36.8,19a12.2,12.2,0,0,0,2.45-2.69.32.32,0,0,0-.4-.47Z"/></svg>